<svg width="284" height="245" viewBox="0 0 284 245" fill="none" xmlns="http://www.w3.org/2000/svg">
<g clip-path="url(#clip0_222_17)">
<path d="M260.277 175.54L269.154 174.408C271.077 169.593 271.927 164.324 271.629 159.056C266.804 166.71 256.596 166.587 249.812 172.047C247.708 173.768 245.976 176 244.742 178.577C243.509 181.154 242.807 184.01 242.689 186.934L239.757 193.253C243.932 193.768 248.156 193.257 252.139 191.758C256.121 190.259 259.768 187.806 262.827 184.569C264.527 182.733 266.014 180.665 267.255 178.411C263.762 177.221 260.277 175.54 260.277 175.54Z" fill="#F2F2F2"/>
<path d="M253.518 161.158L261.014 155.691C260.827 150.417 259.499 145.274 257.144 140.708C255.86 149.98 246.674 154.992 242.767 163.282C241.566 165.878 240.9 168.745 240.818 171.671C240.736 174.596 241.24 177.504 242.293 180.181L242.174 187.308C246.115 185.673 249.693 183.097 252.663 179.757C255.634 176.417 257.925 172.392 259.379 167.96C260.173 165.464 260.685 162.866 260.902 160.227C257.304 160.914 253.518 161.158 253.518 161.158Z" fill="#F2F2F2"/>
<path d="M220.974 228.068C235.831 228.068 247.874 214.519 247.874 197.806C247.874 181.092 235.831 167.543 220.974 167.543C206.118 167.543 194.074 181.092 194.074 197.806C194.074 214.519 206.118 228.068 220.974 228.068Z" fill="white"/>
<path d="M220.974 228.438C215.589 228.438 210.325 226.641 205.847 223.275C201.37 219.91 197.88 215.125 195.819 209.528C193.758 203.931 193.219 197.772 194.269 191.83C195.32 185.888 197.913 180.43 201.721 176.146C205.529 171.862 210.381 168.944 215.662 167.762C220.944 166.58 226.419 167.187 231.394 169.505C236.37 171.824 240.622 175.75 243.614 180.787C246.606 185.825 248.203 191.747 248.203 197.806C248.195 205.927 245.323 213.713 240.219 219.456C235.114 225.198 228.193 228.429 220.974 228.438ZM220.974 167.912C215.719 167.912 210.582 169.666 206.212 172.95C201.842 176.235 198.437 180.904 196.426 186.366C194.414 191.828 193.888 197.839 194.914 203.638C195.939 209.436 198.47 214.763 202.186 218.943C205.902 223.124 210.636 225.971 215.791 227.125C220.945 228.278 226.288 227.686 231.143 225.423C235.998 223.161 240.148 219.329 243.068 214.413C245.988 209.497 247.546 203.718 247.546 197.806C247.538 189.88 244.736 182.282 239.755 176.678C234.773 171.074 228.019 167.921 220.974 167.912Z" fill="#3F3D56"/>
<path d="M218.96 209.9C218.903 209.9 218.846 209.898 218.788 209.895C218.282 209.868 217.786 209.717 217.336 209.454C216.886 209.191 216.492 208.821 216.181 208.371L211.685 201.869C211.401 201.458 211.192 200.989 211.07 200.488C210.947 199.986 210.913 199.463 210.97 198.947C211.028 198.431 211.175 197.932 211.403 197.48C211.632 197.028 211.937 196.631 212.302 196.312L212.464 196.17C212.829 195.851 213.246 195.615 213.692 195.477C214.138 195.339 214.603 195.301 215.062 195.366C215.521 195.43 215.964 195.596 216.366 195.853C216.768 196.11 217.12 196.454 217.404 196.865C217.631 197.193 217.919 197.462 218.247 197.653C218.574 197.845 218.935 197.955 219.304 197.975C219.674 197.995 220.042 197.925 220.385 197.771C220.728 197.616 221.037 197.379 221.292 197.078L230.419 186.237C231.062 185.476 231.946 185.032 232.879 185.004C233.812 184.975 234.717 185.364 235.395 186.085L235.545 186.245C235.881 186.603 236.15 187.031 236.339 187.506C236.527 187.981 236.63 188.493 236.643 189.013C236.655 189.533 236.577 190.05 236.411 190.536C236.246 191.022 235.997 191.466 235.679 191.843L221.514 208.663C221.186 209.054 220.79 209.365 220.351 209.578C219.912 209.791 219.439 209.9 218.96 209.9Z" fill="#1778F2"/>
<path d="M206.902 236.479L203.172 236.947L199.637 220.664L205.143 219.973L206.902 236.479Z" fill="#A0616A"/>
<path d="M231.481 163.273C231.365 163.144 231.24 163.017 231.114 162.897C230.152 161.999 229.146 161.161 228.101 160.387C226.919 159.501 225.589 158.596 224.084 157.663C223.356 157.21 222.587 156.748 221.776 156.277C221.37 156.041 220.952 155.803 220.522 155.563C220.504 155.551 220.485 155.54 220.466 155.53L220.341 155.459L211.288 163.867L210.644 164.435L212.312 166.749C212.312 166.749 212.167 168.589 212.17 168.589L210.515 173.237L210.497 173.247L204.598 176.275L198.52 179.397L195.255 181.075C194.498 181.463 193.817 182.016 193.252 182.703C192.687 183.39 192.249 184.197 191.964 185.076C191.664 185.989 191.528 186.96 191.565 187.932C191.602 188.905 191.811 189.86 192.179 190.741C192.252 190.92 192.334 191.1 192.421 191.273L193.777 200.869C194.588 206.609 196.163 212.178 198.451 217.388L200.523 226.37L200.838 226.193L205.524 223.552L206.762 222.856L206.996 216.821C207.022 216.133 207.026 215.441 207.004 214.751C206.972 213.621 206.876 212.495 206.717 211.378L204.03 192.557C204.507 192.339 204.977 192.119 205.441 191.898C207.591 190.886 209.627 189.863 211.548 188.829C217.797 185.469 222.887 181.981 227.046 178.203C228.215 177.144 229.311 176.059 230.335 174.949C230.711 174.544 231.077 174.135 231.434 173.721C231.518 173.626 231.601 173.531 231.682 173.435C232.415 172.57 232.943 171.513 233.218 170.359C233.493 169.206 233.507 167.993 233.258 166.832C232.979 165.48 232.362 164.245 231.481 163.273Z" fill="#2F2E41"/>
<path d="M206.599 233.629L202.56 234.131L201.927 234.209L202.339 236.907L197.646 242.065C197.413 242.32 197.26 242.651 197.207 243.011C197.154 243.371 197.205 243.741 197.353 244.066C197.5 244.391 197.736 244.655 198.026 244.818C198.315 244.982 198.644 245.037 198.964 244.975L205.629 243.691L206.37 240.801L207.225 243.383L209.736 242.9L207.581 233.508L206.599 233.629Z" fill="#2F2E41"/>
<path d="M210.442 140.203L213.9 136.078L209.022 124.071L208.297 119.853C208.202 119.305 207.982 118.795 207.657 118.373C207.333 117.951 206.915 117.632 206.447 117.448C205.979 117.265 205.475 117.222 204.988 117.326C204.501 117.429 204.046 117.675 203.669 118.038C203.111 118.576 202.761 119.337 202.692 120.161C202.623 120.984 202.841 121.805 203.3 122.451L205.994 126.239L210.442 140.203Z" fill="#A0616A"/>
<path d="M213.9 134.23L209.959 138.664L210.713 145.146C210.953 145.992 211.384 146.755 211.963 147.359C212.541 147.963 213.249 148.388 214.017 148.594C214.964 148.848 215.959 148.755 216.856 148.33C217.753 147.906 218.507 147.17 219.008 146.231L227.872 129.138C228.5 127.96 228.694 126.553 228.413 125.216C228.131 123.879 227.396 122.72 226.364 121.985C225.809 121.59 225.187 121.33 224.537 121.224C223.887 121.117 223.225 121.165 222.593 121.366C221.961 121.566 221.373 121.914 220.868 122.387C220.364 122.859 219.953 123.446 219.664 124.109L214.253 137.079L213.9 134.23Z" fill="#E6E6E6"/>
<path d="M209.93 199.655C209.726 199.888 209.522 200.118 209.316 200.349C208.905 200.811 208.488 201.268 208.07 201.72C207.86 201.946 207.647 202.173 207.436 202.397L207.438 202.405L207.424 202.412L207.42 202.416L207.069 202.619L206.197 201.174L205.794 200.508L205.226 199.565L204.184 197.84L198.698 188.756L203.618 185.899L204.005 186.747L204.008 186.746L204.199 187.167L207.797 195.009L208.532 196.613L208.555 196.661L208.996 197.618L209.377 198.448L209.802 199.376L209.93 199.655Z" fill="#A0616A"/>
<path d="M208.913 196.71L205.489 199.17L204.951 199.555L206.382 201.77L204.2 208.731C204.092 209.075 204.085 209.449 204.179 209.798C204.273 210.147 204.464 210.453 204.724 210.672C204.984 210.89 205.299 211.009 205.623 211.012C205.948 211.014 206.264 210.9 206.527 210.686L211.999 206.218L211.528 203.257L213.31 205.147L215.372 203.464L209.747 196.113L208.913 196.71Z" fill="#2F2E41"/>
<path d="M90.0085 60.495L92.6308 50.8872C89.4756 46.9805 85.5205 43.9994 81.1088 42.2026C85.419 50.2361 81.2424 60.7159 82.9828 69.8928C83.5452 72.7503 84.6719 75.4289 86.2794 77.7299C87.887 80.031 89.9343 81.8955 92.2695 83.1855L96.2489 88.7325C98.335 84.632 99.6063 80.0715 99.9749 75.3651C100.344 70.6587 99.8009 65.9184 98.3843 61.4706C97.5676 58.9843 96.4759 56.6236 95.1348 54.4442C92.7701 57.5718 90.0085 60.495 90.0085 60.495Z" fill="#F2F2F2"/>
<path d="M75.5894 61.7226L74.1277 51.8074C69.755 49.8939 65.0331 49.2101 60.3722 49.8154C67.4147 54.8431 67.8309 66.3185 73.0266 73.659C74.6627 75.9345 76.733 77.7666 79.084 79.0195C81.4351 80.2725 84.0066 80.9142 86.6081 80.8971L92.3688 83.8653C92.6105 79.1485 91.9404 74.4289 90.4046 70.0315C88.8688 65.6341 86.5039 61.6636 83.4728 58.3934C81.7562 56.5778 79.8432 55.0126 77.779 53.7348C76.9023 57.7206 75.5894 61.7226 75.5894 61.7226Z" fill="#F2F2F2"/>
<path d="M125.778 32.6031L128.472 28.8156C128.931 28.1698 129.149 27.3486 129.08 26.5252C129.011 25.7018 128.661 24.9407 128.103 24.4025C127.726 24.0393 127.271 23.7937 126.784 23.6902C126.297 23.5867 125.793 23.6289 125.325 23.8126C124.857 23.9964 124.439 24.3152 124.115 24.7372C123.79 25.1593 123.57 25.6698 123.475 26.2177L122.75 30.435L119.997 38.7976L123.301 40.656L125.778 32.6031Z" fill="#FFB8B8"/>
<path d="M117.519 43.4435L112.108 30.4736C111.819 29.8106 111.408 29.2236 110.904 28.7509C110.399 28.2782 109.812 27.9304 109.179 27.73C108.547 27.5296 107.885 27.4812 107.235 27.5879C106.585 27.6946 105.963 27.954 105.408 28.3493C104.377 29.0842 103.641 30.2438 103.36 31.5803C103.078 32.9168 103.272 34.3243 103.9 35.5022L112.764 52.5956C113.265 53.5347 114.019 54.27 114.916 54.6948C115.814 55.1196 116.808 55.2119 117.755 54.9582C118.523 54.7525 119.231 54.327 119.81 53.7229C120.388 53.1189 120.819 52.3568 121.059 51.5106L124.402 39.7268L119.997 37.249L117.519 43.4435Z" fill="#2F2E41"/>
<path d="M127.728 39.2693L124.184 38.9349C123.627 38.8817 123.112 38.5824 122.752 38.1027C122.391 37.6229 122.215 37.0019 122.261 36.3758L123.625 18.0791C123.672 17.4531 123.938 16.8739 124.364 16.4683C124.791 16.0628 125.343 15.8641 125.899 15.916L129.444 16.2503C130 16.3035 130.515 16.6028 130.876 17.0826C131.236 17.5623 131.413 18.1834 131.367 18.8094L130.003 37.1061C129.956 37.7321 129.69 38.3114 129.263 38.7169C128.837 39.1224 128.285 39.3211 127.728 39.2693Z" fill="#3F3D56"/>
<path d="M125.415 16.81C125.115 16.7821 124.818 16.8892 124.588 17.1077C124.358 17.3262 124.215 17.6384 124.189 17.9757L122.826 36.2724C122.801 36.6098 122.896 36.9445 123.09 37.203C123.284 37.4615 123.562 37.6228 123.862 37.6515L127.406 37.9859C127.706 38.0138 128.004 37.9067 128.233 37.6882C128.463 37.4696 128.607 37.1575 128.632 36.8202L129.996 18.5234C130.021 18.1861 129.925 17.8514 129.731 17.5929C129.537 17.3344 129.259 17.1731 128.96 17.1444L125.415 16.81Z" fill="#1778F2"/>
<path d="M118.163 55.7377H103.417V72.3281H118.163V55.7377Z" fill="#FFB8B8"/>
<path d="M121.031 54.3189C121.468 54.3189 121.821 53.921 121.821 53.4301C121.821 52.9393 121.468 52.5414 121.031 52.5414C120.595 52.5414 120.241 52.9393 120.241 53.4301C120.241 53.921 120.595 54.3189 121.031 54.3189Z" fill="#2F2E41"/>
<path d="M134.194 125.815L138.127 125.815L139.999 108.748L134.194 108.748L134.194 125.815Z" fill="#FFB6B6"/>
<path d="M133.219 123.632L139.436 123.215V126.212L145.348 130.805C145.64 131.031 145.859 131.357 145.975 131.735C146.091 132.112 146.096 132.521 145.991 132.902C145.885 133.283 145.674 133.616 145.388 133.853C145.102 134.089 144.757 134.217 144.402 134.217H137L135.724 131.253L135.226 134.217H132.435L133.219 123.632Z" fill="#2F2E41"/>
<path d="M105.005 137.999L108.377 140.276L117.789 126.726L112.812 123.365L105.005 137.999Z" fill="#FFB6B6"/>
<path d="M105.167 135.563L110.689 138.804L109.318 141.374L112.285 148.734C112.431 149.098 112.471 149.505 112.398 149.895C112.324 150.286 112.142 150.64 111.877 150.905C111.612 151.171 111.279 151.334 110.925 151.371C110.572 151.409 110.217 151.318 109.913 151.113L103.566 146.827L103.829 143.547L102.045 145.8L99.6525 144.184L105.167 135.563Z" fill="#2F2E41"/>
<path d="M25.9182 136.513C25.8793 136.513 25.8405 136.513 25.8013 136.511C25.3441 136.492 24.8977 136.35 24.5001 136.095C24.1024 135.841 23.7652 135.482 23.5173 135.049C21.6602 131.927 19.3811 129.149 16.7624 126.818C15.1771 125.392 13.5205 124.067 11.9185 122.785C7.78573 119.479 3.89366 116.365 1.73317 112.063C-2.97735 102.682 2.56998 89.6148 10.4949 83.7548C19.3837 77.1825 31.0756 76.1515 42.3862 76.0164C43.5616 76.0025 44.7378 75.9955 45.9147 75.9956C66.2939 76.0044 86.6303 78.0963 106.673 82.2456C113.338 83.6289 120.314 85.3235 125.92 89.436C131.493 93.5242 134.88 99.9621 134.549 105.838C134.067 114.415 125.985 120.825 118.625 122.5C111.61 124.096 104.322 123.018 96.6071 121.876C94.9039 121.624 93.1428 121.363 91.4013 121.136C72.4747 118.675 36.9199 126.261 35.4157 126.585L33.9233 126.907L28.133 135.29C27.8725 135.672 27.5371 135.981 27.1529 136.193C26.7688 136.406 26.3462 136.515 25.9182 136.513Z" fill="#1778F2"/>
<path d="M110.2 94.669H30.2042C29.7425 94.669 29.2998 94.4627 28.9734 94.0955C28.647 93.7283 28.4636 93.2302 28.4636 92.7109C28.4636 92.1915 28.647 91.6935 28.9734 91.3263C29.2998 90.959 29.7425 90.7527 30.2042 90.7527H110.2C110.662 90.7527 111.105 90.959 111.431 91.3263C111.758 91.6935 111.941 92.1915 111.941 92.7109C111.941 93.2302 111.758 93.7283 111.431 94.0955C111.105 94.4627 110.662 94.669 110.2 94.669Z" fill="white"/>
<path d="M110.2 106.688H30.2041C29.9754 106.689 29.7489 106.639 29.5374 106.54C29.326 106.442 29.1338 106.298 28.9718 106.117C28.8099 105.935 28.6813 105.719 28.5935 105.482C28.5058 105.244 28.4604 104.989 28.4602 104.732C28.46 104.475 28.5048 104.22 28.5922 103.982C28.6795 103.744 28.8076 103.528 28.9693 103.346C29.1309 103.164 29.3228 103.02 29.5341 102.921C29.7453 102.823 29.9718 102.772 30.2005 102.772H110.2C110.662 102.773 111.104 102.979 111.43 103.346C111.756 103.714 111.939 104.211 111.939 104.73C111.939 105.249 111.756 105.747 111.43 106.114C111.104 106.481 110.662 106.688 110.2 106.688Z" fill="white"/>
<path d="M39.5265 118.707H30.2041C29.7429 118.706 29.3008 118.5 28.9749 118.133C28.649 117.766 28.4659 117.268 28.4659 116.749C28.4659 116.23 28.649 115.733 28.9749 115.365C29.3008 114.998 29.7429 114.792 30.2041 114.791H39.5265C39.9877 114.792 40.4298 114.998 40.7557 115.365C41.0816 115.733 41.2646 116.23 41.2646 116.749C41.2646 117.268 41.0816 117.766 40.7557 118.133C40.4298 118.5 39.9877 118.706 39.5265 118.707Z" fill="white"/>
<path d="M118.685 67.5786L102.919 65.4618L103.372 68.8248C103.372 68.8248 92.6958 78.5032 100.004 89.1817L103.533 93.0531L103.208 94.8723H105.474L105.717 97.0673L115.465 106.144L116.024 108.002H117.629L116.845 110.113L109.608 129.048L115.604 132.193L126.646 108.378L123.817 101.201L113.642 86.7129L129.402 93.7159L129.671 95.2532L131.119 94.9445L130.84 97.207L133.915 115.008L140.429 114.036L139.759 91.8858C139.709 90.675 139.374 89.5008 138.79 88.4824C138.206 87.464 137.393 86.6376 136.433 86.0872C133.094 84.1577 120.759 78.7966 120.759 78.7966L118.685 67.5786Z" fill="#2F2E41"/>
<path d="M112.37 28.7784L109.402 24.486L105.168 24.2795L104.745 28.3165L102.647 29.4049C100.552 38.3584 100.229 47.7199 101.699 56.8294C101.98 57.1272 102.186 57.504 102.294 57.921C102.403 58.3379 102.411 58.7799 102.317 59.2013L102.181 59.8114L102.193 59.8337C102.64 60.6262 102.791 61.5844 102.615 62.5015L98.7794 70.1686C106.924 73.9032 112.895 66.9387 118.427 57.8116L121.85 44.48L112.37 28.7784Z" fill="#3F3D56"/>
<path d="M121.293 53.4596L122.093 44.4652L111.48 26.7913L111.044 27.1227L121.55 44.6197L120.769 53.4005L121.293 53.4596Z" fill="#2F2E41"/>
<path d="M109.609 24.1336C113.932 24.1336 117.437 20.1904 117.437 15.3263C117.437 10.4622 113.932 6.51898 109.609 6.51898C105.285 6.51898 101.78 10.4622 101.78 15.3263C101.78 20.1904 105.285 24.1336 109.609 24.1336Z" fill="#FFB8B8"/>
<path d="M110.616 4.58491L109.633 4.61998L109.3 4.63189L105.561 4.76534C102.247 4.88363 99.6569 8.37941 99.7752 12.5734C97.3544 15.4872 98.2046 18.999 100.296 22.7376C103.891 23.1109 107.422 24.0397 110.792 25.4977L111.2 23.2143L112.214 26.1661C113.055 26.5877 113.889 27.0517 114.718 27.5581C113.627 22.5727 113.095 17.5789 113.637 13.6656L115.349 13.6045L115.29 11.4968L115.93 13.5838L119.034 13.473C119 12.2675 118.755 11.0814 118.314 9.98237C117.872 8.88332 117.243 7.89284 116.461 7.0675C115.679 6.24217 114.761 5.59813 113.758 5.17217C112.755 4.7462 111.687 4.54666 110.616 4.58491Z" fill="#2F2E41"/>
<path d="M103.856 8.29522C105.892 8.29522 107.543 6.43828 107.543 4.14762C107.543 1.85697 105.892 3.05176e-05 103.856 3.05176e-05C101.82 3.05176e-05 100.169 1.85697 100.169 4.14762C100.169 6.43828 101.82 8.29522 103.856 8.29522Z" fill="#2F2E41"/>
<path d="M128.077 37.0367L130.77 33.2492C131.23 32.6035 131.448 31.7822 131.379 30.9588C131.31 30.1355 130.96 29.3744 130.402 28.8361C130.025 28.473 129.57 28.2273 129.083 28.1238C128.595 28.0203 128.092 28.0625 127.624 28.2463C127.155 28.43 126.738 28.7488 126.414 29.1709C126.089 29.5929 125.869 30.1034 125.774 30.6513L125.049 34.8687L122.296 43.2312L125.599 45.0896L128.077 37.0367Z" fill="#FFB8B8"/>
<path d="M119.818 47.8772L114.407 34.9072C114.118 34.2442 113.707 33.6573 113.202 33.1846C112.698 32.7118 112.11 32.364 111.478 32.1636C110.846 31.9632 110.184 31.9148 109.534 32.0215C108.884 32.1282 108.262 32.3876 107.707 32.7829C106.675 33.5178 105.94 34.6774 105.658 36.0139C105.377 37.3505 105.571 38.758 106.199 39.9358L115.063 57.0292C115.564 57.9684 116.318 58.7036 117.215 59.1284C118.112 59.5533 119.107 59.6455 120.054 59.3918C120.822 59.1861 121.53 58.7606 122.108 58.1566C122.687 57.5525 123.118 56.7905 123.358 55.9443L126.701 44.1604L122.296 41.6826L119.818 47.8772Z" fill="#2F2E41"/>
<path d="M233.607 170.78C233.266 171.396 232.918 172.009 232.567 172.616C231.915 173.746 231.246 174.86 230.559 175.957C230.559 175.96 230.557 175.96 230.554 175.963C230.154 176.38 229.712 176.744 229.236 177.046C229.216 177.063 229.194 177.074 229.174 177.088C228.824 177.305 228.451 177.474 228.065 177.589C227.925 177.628 227.784 177.667 227.644 177.706C227.142 177.84 226.644 177.955 226.149 178.056C225.269 178.232 224.398 178.358 223.533 178.437C223.463 178.445 223.393 178.451 223.324 178.456C219.764 178.75 216.299 178.277 212.682 177.502C210.896 177.121 209.073 176.665 207.185 176.192C206.568 176.036 205.949 175.882 205.322 175.728C205.275 175.717 205.225 175.703 205.175 175.691C204.28 175.47 203.37 175.252 202.437 175.037C201.263 174.765 201.865 174.749 200.606 174.5C200.606 174.5 203.51 177.818 203.992 179.256C204.53 181.025 204.955 182.424 204.057 185.337L206.846 191.496L197.151 193.345C191.808 181.566 187.537 173.81 189.445 169.242C189.453 169.029 189.467 168.814 189.492 168.601C189.594 167.634 189.865 166.7 190.291 165.852C190.717 165.005 191.288 164.261 191.972 163.665C192.628 163.088 193.378 162.664 194.181 162.418C194.983 162.171 195.821 162.106 196.646 162.226L198.549 162.503L213.307 161.697L213.886 159.038L213.993 158.994L217.394 157.592L229.154 152.742L229.184 152.731L229.957 152.412L230.05 152.58C230.077 152.63 230.104 152.68 230.129 152.731C230.894 154.273 231.516 155.899 231.987 157.583C232.779 160.335 233.431 163.135 233.94 165.97C233.962 166.093 233.982 166.205 234 166.306L234.007 166.336C234.014 166.384 234.019 166.415 234.022 166.423C234.293 167.694 234.104 169.244 233.607 170.78Z" fill="#2F2E41"/>
<path d="M231.125 119.073L231.04 113.769L223.572 112.792L222.789 117.27L214.939 125.568C209.358 133.244 213.414 138.537 213.657 139.324L214.347 149.003L214.781 152.366L213.086 161.569L234.483 166.733C235.168 160.37 234.405 154.458 229.938 149.699L232.195 141.798C233.339 139.735 234.057 137.409 234.294 134.992L234.375 134.166C236.37 127.174 235.188 124.82 231.125 119.073Z" fill="#E6E6E6"/>
<path d="M241.603 102.497C241.608 102.635 241.611 102.772 241.611 102.906C241.609 104.388 241.295 105.849 240.695 107.168C240.095 108.488 239.226 109.629 238.16 110.498C237.093 111.368 235.858 111.941 234.557 112.171C233.255 112.401 231.924 112.281 230.671 111.822L229.137 111.259C229.124 111.254 229.109 111.251 229.097 111.245L226.567 110.316C226.559 110.196 226.56 110.075 226.572 109.955C222.799 108.142 228.015 102.184 229.311 97.7095C229.512 97.0127 222.585 97.5332 222.913 96.9371C222.841 96.8951 222.769 96.8532 222.702 96.8112C223.872 94.7336 225.602 93.1313 227.639 92.2382C229.676 91.3451 231.913 91.208 234.024 91.8469C234.079 91.8609 234.136 91.8805 234.191 91.8973C239.106 92.0344 241.688 95.8877 241.688 100.891C241.688 101.428 241.66 101.964 241.603 102.497Z" fill="#2F2E41"/>
<path d="M237.345 104.467C236.686 106.74 235.251 108.624 233.357 109.707C231.463 110.789 229.264 110.981 227.244 110.24C227.015 110.157 226.791 110.061 226.572 109.955C224.734 109.069 223.257 107.441 222.431 105.391C221.606 103.341 221.492 101.018 222.112 98.8792C222.309 98.198 222.578 97.5459 222.913 96.9371C223.943 95.0609 225.548 93.6746 227.426 93.0405C229.303 92.4065 231.322 92.5687 233.1 93.4965C234.878 94.4243 236.292 96.0532 237.074 98.075C237.857 100.097 237.953 102.371 237.345 104.467Z" fill="#A0616A"/>
<path d="M229.135 111.258C229.122 111.254 229.109 111.25 229.096 111.244L226.567 110.316C226.56 110.194 221.917 113.652 221.93 113.531C222.002 112.596 227.234 108.037 228.015 106.976C228.521 106.299 228.872 105.494 229.039 104.63C229.207 103.766 229.185 102.869 228.975 102.016C228.766 101.164 228.375 100.382 227.837 99.7373C227.299 99.0926 226.63 98.6047 225.887 98.3158C225.865 98.3094 225.843 98.3007 225.821 98.2899C225.332 98.0978 224.862 97.902 224.422 97.7062C224.206 96.6901 224.094 97.0263 223.572 96.1655C223.667 96.9487 222.784 97.5399 222.77 98.3306C222.59 98.2382 222.419 98.1421 222.255 98.0461C222.183 98.0017 222.114 97.9611 222.045 97.9204C221.538 97.6556 221.095 97.2578 220.754 96.7603C222.018 92.3895 226.856 88.8906 230.741 90.3205L232.209 90.8562C234.061 91.5324 235.599 93.0054 236.488 94.9536C237.559 95.8772 238.414 97.0807 238.978 98.4599C242.19 105.72 235.986 113.734 229.135 111.258Z" fill="#2F2E41"/>
<path d="M239.758 99.1087C241.681 99.1087 243.24 97.3546 243.24 95.191C243.24 93.0273 241.681 91.2733 239.758 91.2733C237.835 91.2733 236.276 93.0273 236.276 95.191C236.276 97.3546 237.835 99.1087 239.758 99.1087Z" fill="#2F2E41"/>
<path d="M284 103.182C283.262 106.956 281.784 110.498 279.675 113.548C277.567 116.599 274.879 119.082 271.809 120.816C271.418 121.034 271.021 121.238 270.62 121.426C270.657 119.599 270.19 117.804 269.284 116.287C269.431 117.517 269.449 118.762 269.336 119.996C269.275 120.704 269.171 121.407 269.024 122.099C266.448 123.054 263.742 123.493 261.031 123.395C260.876 122.04 260.441 120.744 259.76 119.612C259.907 120.842 259.925 122.087 259.812 123.321C257.087 123.073 254.424 122.27 251.953 120.953C250.669 120.266 249.408 119.405 248.581 118.105C247.48 116.372 247.297 114.085 247.566 111.979C247.835 109.869 248.508 107.855 248.978 105.794C249.448 103.732 249.714 101.526 249.162 99.4907C248.613 97.4512 247.073 95.6371 245.185 95.4783C244.324 95.4044 243.461 95.6704 242.6 95.5817C241.74 95.4893 240.807 94.8428 240.787 93.8711L241.612 92.3636C241.96 89.7256 243.155 87.1098 245.205 85.7686C247.251 84.4238 250.193 84.7119 251.655 86.8105C252.886 88.5766 252.84 91.0299 253.244 93.2282C254.183 98.3343 257.812 102.443 262.029 104.608C266.249 106.769 270.998 107.224 275.635 107.135C277.225 107.102 278.841 107.006 280.351 106.44C281.865 105.871 283.278 104.778 284 103.182Z" fill="#2F2E41"/>
<path d="M205.022 126.727L203.658 108.43C203.612 107.804 203.789 107.183 204.149 106.704C204.51 106.224 205.025 105.924 205.581 105.871L209.126 105.537C209.682 105.485 210.234 105.684 210.661 106.089C211.087 106.495 211.353 107.074 211.4 107.7L212.764 125.997C212.81 126.623 212.634 127.244 212.273 127.724C211.913 128.203 211.398 128.503 210.841 128.556L207.297 128.89C206.74 128.942 206.188 128.743 205.762 128.338C205.335 127.932 205.069 127.353 205.022 126.727Z" fill="#3F3D56"/>
<path d="M206.066 106.765C205.766 106.794 205.488 106.955 205.294 107.214C205.1 107.472 205.005 107.807 205.029 108.144L206.393 126.441C206.419 126.778 206.562 127.091 206.792 127.309C207.022 127.528 207.319 127.635 207.619 127.607L211.164 127.272C211.463 127.244 211.741 127.083 211.935 126.824C212.129 126.565 212.224 126.231 212.2 125.893L210.836 107.597C210.81 107.259 210.667 106.947 210.437 106.729C210.207 106.51 209.91 106.403 209.61 106.431L206.066 106.765Z" fill="#1778F2"/>
<path d="M212.042 133.005L215.493 131.524L213.489 122.896L213.137 118.618C213.092 118.062 212.917 117.53 212.631 117.074C212.346 116.618 211.958 116.254 211.508 116.019C211.058 115.784 210.561 115.686 210.067 115.735C209.573 115.784 209.099 115.977 208.692 116.297C208.09 116.77 207.674 117.489 207.533 118.3C207.392 119.112 207.537 119.954 207.937 120.647L210.284 124.716L212.042 133.005Z" fill="#A0616A"/>
<path d="M215.629 129.982L211.028 131.958L213.318 144.056C213.483 144.925 213.844 145.731 214.367 146.396C214.89 147.062 215.557 147.564 216.303 147.854C217.223 148.212 218.22 148.231 219.151 147.908C220.081 147.585 220.896 146.938 221.477 146.059L231.801 130.036C232.529 128.934 232.846 127.555 232.683 126.193C232.52 124.832 231.891 123.596 230.929 122.75C230.412 122.295 229.815 121.967 229.178 121.789C228.54 121.61 227.877 121.585 227.23 121.714C226.584 121.843 225.969 122.124 225.425 122.538C224.881 122.952 224.421 123.491 224.074 124.118L217.55 136.422L215.629 129.982Z" fill="#E6E6E6"/>
<path opacity="0.2" d="M211.887 136.495L214.212 147.121L214.695 147.781C215.077 148.305 215.565 148.717 216.119 148.984C216.672 149.251 217.274 149.364 217.875 149.315C218.475 149.265 219.056 149.054 219.569 148.7C220.082 148.345 220.512 147.857 220.822 147.276L228.193 133.489L221.547 143.834C221.175 144.414 220.677 144.878 220.102 145.183C219.526 145.488 218.891 145.624 218.256 145.577C217.621 145.531 217.007 145.304 216.472 144.918C215.936 144.532 215.496 143.999 215.193 143.369L211.887 136.495Z" fill="black"/>
</g>
<defs>
<clipPath id="clip0_222_17">
<rect width="284" height="245" fill="white"/>
</clipPath>
</defs>
</svg>
