<svg width="332" height="222" viewBox="0 0 332 222" fill="none" xmlns="http://www.w3.org/2000/svg">
<path d="M4.4152 17.0516H90.6562C91.8268 17.0529 92.9491 17.5105 93.7768 18.3241C94.6045 19.1376 95.0701 20.2406 95.0714 21.3911V147.081C95.0701 148.231 94.6045 149.334 93.7768 150.148C92.9491 150.962 91.8268 151.419 90.6562 151.42H4.4152C3.24462 151.419 2.12237 150.962 1.29464 150.148C0.466916 149.334 0.00131594 148.231 0 147.081V21.3911C0.0013232 20.2406 0.466924 19.1376 1.29465 18.3241C2.12237 17.5105 3.24462 17.0529 4.4152 17.0516Z" fill="#F2F2F2"/>
<path d="M5.48567 20.2076H89.586C90.189 20.2083 90.7671 20.444 91.1935 20.8631C91.6199 21.2822 91.8598 21.8505 91.8605 22.4431V146.029C91.8598 146.622 91.6199 147.19 91.1935 147.609C90.7671 148.028 90.189 148.264 89.586 148.264H5.48567C4.88264 148.264 4.30451 148.028 3.8781 147.609C3.4517 147.19 3.21185 146.622 3.21118 146.029V22.4431C3.21185 21.8505 3.4517 21.2822 3.8781 20.8631C4.30451 20.444 4.88264 20.2083 5.48567 20.2076Z" fill="white"/>
<path d="M63.9298 66.3673C63.9298 74.3122 56.4553 73.1105 47.2351 73.1105C38.0148 73.1105 30.5403 74.3122 30.5403 66.3673C30.5403 58.4223 34.1914 44.3392 47.2351 44.3392C60.7281 44.3392 63.9298 58.4223 63.9298 66.3673Z" fill="#2F2E41"/>
<path d="M83.5691 133.619C83.9036 132.994 84.0946 132.305 84.1287 131.6C84.1628 130.895 84.0391 130.191 83.7665 129.538C83.4938 128.884 83.0787 128.298 82.5505 127.819C82.0223 127.341 81.3937 126.982 80.7091 126.768L61.5828 87.0013L52.8339 93.0312L74.3855 130.225C74.0962 131.379 74.2476 132.597 74.8112 133.649C75.3748 134.701 76.3113 135.513 77.4433 135.931C78.5753 136.35 79.8241 136.345 80.9531 135.919C82.0822 135.493 83.013 134.675 83.5691 133.619V133.619Z" fill="#A0616A"/>
<path d="M66.9262 90.4946L65.8329 88.8133L65.275 87.9502L60.9801 81.3328C60.3187 79.8801 59.0984 78.7444 57.5866 78.1746C56.0748 77.6047 54.3947 77.6472 52.9147 78.2927C51.4347 78.9382 50.2754 80.1341 49.691 81.6183C49.1065 83.1024 49.1446 84.7538 49.7968 86.2104L50.7803 89.6585L52.7881 96.7074C52.91 97.1413 53.1696 97.5256 53.5292 97.8043C53.6653 97.9164 53.816 98.0101 53.9774 98.0831C54.2583 98.2135 54.5643 98.2838 54.875 98.2893C55.1857 98.2947 55.494 98.2351 55.7795 98.1145C55.7886 98.11 55.8025 98.1055 55.8117 98.101L61.0075 95.8173L61.0167 95.8128L64.9822 94.0686L65.9703 93.637C66.2536 93.5132 66.5064 93.3307 66.7113 93.102C66.9284 92.8662 67.0879 92.5849 67.1776 92.2793C67.2704 91.9818 67.2959 91.6679 67.2525 91.3597C67.2091 91.0514 67.0977 90.7562 66.9262 90.4946Z" fill="#CCCCCC"/>
<path d="M39.5147 146.877C39.3204 146.56 39.0468 146.298 38.7199 146.114C38.393 145.931 38.0238 145.832 37.6473 145.829C37.2709 145.825 36.8997 145.916 36.5693 146.094C36.2388 146.271 35.9601 146.528 35.7595 146.841C35.6729 146.97 35.6037 147.109 35.5538 147.255L35.293 147.961H40.178L39.5147 146.877Z" fill="#2F2E41"/>
<path d="M47.1298 72.6545C53.3341 72.6545 58.3637 67.711 58.3637 61.613C58.3637 55.515 53.3341 50.5716 47.1298 50.5716C40.9254 50.5716 35.8958 55.515 35.8958 61.613C35.8958 67.711 40.9254 72.6545 47.1298 72.6545Z" fill="#A0616A"/>
<path d="M66.8211 94.2709C66.7936 93.8753 66.757 93.4842 66.7115 93.102C66.5491 91.6496 66.2552 90.2143 65.8331 88.8133C65.7462 88.5076 65.6502 88.2109 65.545 87.9187C64.2075 84.0449 61.8834 80.572 58.794 77.8308C57.5708 76.7535 55.986 76.158 54.3436 76.1584H38.5178C37.546 76.1585 36.586 76.3673 35.7049 76.7702C34.8238 77.1731 34.0429 77.7603 33.4168 78.4908C32.7908 79.2213 32.3347 80.0775 32.0804 80.9993C31.8262 81.9212 31.78 82.8865 31.945 83.8278C31.9403 83.8323 31.9403 83.8323 31.945 83.8368C32.0567 84.4652 32.2617 85.0741 32.5534 85.644L33.1937 86.8982L37.484 95.3318L42.8217 105.824L43.1328 106.436L63.0248 111.812L63.107 111.628C63.1803 111.466 63.258 111.3 63.3266 111.138C63.4365 110.895 63.5417 110.653 63.6469 110.414C65.4185 106.453 66.4948 102.226 66.8303 97.9122V97.9077C66.9051 96.6965 66.9021 95.4818 66.8211 94.2709Z" fill="#3F3D56"/>
<path d="M63.6467 110.414C63.5791 110.185 63.4724 109.97 63.3311 109.776C62.8189 109.103 62.2068 108.509 61.5152 108.014L61.5107 108.009C59.1003 106.211 54.3159 104.116 45.0721 104.062H45.0583C44.6346 104.062 44.2201 104.183 43.864 104.408C43.508 104.634 43.2255 104.955 43.0502 105.334L42.8215 105.824L41.3489 109.007C41.2233 109.279 41.0259 109.514 40.7771 109.686C38.4399 111.313 27.1195 120.439 33.7653 140.476C34.4148 142.431 35.0825 144.567 35.7595 146.841C35.8693 147.21 35.9791 147.583 36.0889 147.961H56.0129L55.5874 144.814C55.559 144.608 55.57 144.4 55.6196 144.198L63.6375 111.678L63.6742 111.538C63.7658 111.168 63.7564 110.78 63.6467 110.414Z" fill="#2F2E41"/>
<path d="M69.8993 74.0096H78.5897C78.9536 74.0096 79.3026 74.1517 79.56 74.4046C79.8173 74.6575 79.9619 75.0006 79.9619 75.3582V77.606C80.0831 77.6064 80.1992 77.6538 80.2849 77.7381C80.3706 77.8223 80.4189 77.9364 80.4193 78.0555V78.9546C80.4189 79.0738 80.3706 79.1879 80.2849 79.2721C80.1992 79.3564 80.0831 79.4038 79.9619 79.4042V80.3033C80.0831 80.3037 80.1992 80.3511 80.2849 80.4354C80.3706 80.5196 80.4189 80.6337 80.4193 80.7529V81.652C80.4189 81.7711 80.3706 81.8852 80.2849 81.9694C80.1992 82.0537 80.0831 82.1011 79.9619 82.1015V94.2394C79.9619 94.5971 79.8173 94.9401 79.56 95.193C79.3026 95.4459 78.9536 95.588 78.5897 95.588H69.8993C69.5354 95.588 69.1863 95.4459 68.929 95.193C68.6717 94.9401 68.5271 94.5971 68.5271 94.2394V75.3582C68.5271 75.0006 68.6717 74.6575 68.929 74.4046C69.1863 74.1517 69.5354 74.0096 69.8993 74.0096Z" fill="#3F3D56"/>
<path d="M69.4419 94.2394V75.3582C69.4419 75.0006 69.5865 74.6575 69.8438 74.4046C70.1011 74.1517 70.4501 74.0096 70.8141 74.0096H69.8993C69.5354 74.0096 69.1864 74.1517 68.929 74.4046C68.6717 74.6575 68.5271 75.0006 68.5271 75.3582V94.2394C68.5271 94.5971 68.6717 94.9401 68.929 95.193C69.1864 95.4459 69.5354 95.588 69.8993 95.588H70.8141C70.4501 95.588 70.1011 95.4459 69.8438 95.193C69.5865 94.9401 69.4419 94.5971 69.4419 94.2394Z" fill="#6C63FF"/>
<path d="M74.0157 82.1015C75.0262 82.1015 75.8453 81.2964 75.8453 80.3033C75.8453 79.3102 75.0262 78.5051 74.0157 78.5051C73.0053 78.5051 72.1862 79.3102 72.1862 80.3033C72.1862 81.2964 73.0053 82.1015 74.0157 82.1015Z" fill="white"/>
<path d="M71.6945 86.603C71.5459 86.8044 71.4137 87.017 71.2992 87.2388L48.7776 89.8979L45.4657 85.569L38.1654 89.6276L43.2707 97.8511C43.6831 98.5155 44.3037 99.0304 45.0393 99.3186C45.7748 99.6068 46.5856 99.6527 47.3499 99.4495L72.2609 92.825C72.9689 93.4839 73.8641 93.9154 74.8276 94.0621C75.7911 94.2088 76.7772 94.0636 77.6548 93.646C78.5323 93.2284 79.2597 92.5582 79.7402 91.7243C80.2207 90.8905 80.4316 89.9326 80.3447 88.9781C80.2578 88.0237 79.8773 87.1178 79.2538 86.3811C78.6303 85.6443 77.7934 85.1116 76.8543 84.8537C75.9153 84.5959 74.9186 84.6252 73.9969 84.9376C73.0752 85.2501 72.2721 85.831 71.6945 86.603V86.603Z" fill="#A0616A"/>
<path d="M48.5895 87.1275L42.2774 79.0896C41.573 77.8509 40.4178 76.9201 39.0439 76.4841C37.67 76.0481 36.1791 76.1393 34.8708 76.7393C33.5624 77.3392 32.5335 78.4036 31.9908 79.7185C31.4481 81.0335 31.4317 82.5015 31.945 83.8278C31.9403 83.8323 31.9403 83.8323 31.945 83.8368C32.0391 84.0818 32.1522 84.3192 32.2833 84.5471L33.1936 86.8983L35.9608 94.0686C36.0654 94.3407 36.2287 94.5873 36.4396 94.7914C36.6504 94.9955 36.9038 95.1523 37.1822 95.2509C37.2803 95.2862 37.3812 95.3133 37.4839 95.3319C37.9632 95.428 38.4617 95.3514 38.8882 95.1161L40.8916 94.0147L47.9628 90.1305C48.2201 89.9871 48.4433 89.7914 48.6176 89.5565C48.7919 89.3217 48.9133 89.053 48.9737 88.7684C49.033 88.4838 49.0295 88.19 48.9632 87.9069C48.8969 87.6238 48.7695 87.358 48.5895 87.1275Z" fill="#3F3D56"/>
<path d="M34.1995 63.6699H38.6427L40.6029 57.0304L40.9949 63.6699H43.1186L44.2621 59.7969L44.4908 63.6699H60.2708C60.2708 55.725 54.9465 49.2843 48.3786 49.2843H46.0916C39.5238 49.2843 34.1995 55.725 34.1995 63.6699Z" fill="#2F2E41"/>
<path d="M164.5 55.23H71.3797C70.2091 55.2287 69.0868 54.7711 68.2591 53.9575C67.4314 53.144 66.9658 52.041 66.9645 50.8904V4.33952C66.9658 3.189 67.4314 2.08598 68.2591 1.27244C69.0868 0.458906 70.2091 0.00129338 71.3797 0H164.5C165.67 0.0012922 166.793 0.458906 167.62 1.27244C168.448 2.08598 168.914 3.189 168.915 4.33952V50.8905C168.914 52.041 168.448 53.144 167.62 53.9575C166.793 54.7711 165.67 55.2287 164.5 55.23Z" fill="#CCCCCC"/>
<path d="M163.429 52.074H72.45C71.847 52.0733 71.2689 51.8376 70.8425 51.4185C70.4161 50.9994 70.1762 50.4312 70.1755 49.8385V5.39153C70.1762 4.79885 70.4161 4.23062 70.8425 3.81153C71.2689 3.39243 71.847 3.1567 72.45 3.15604H163.429C164.032 3.1567 164.611 3.39243 165.037 3.81153C165.463 4.23062 165.703 4.79885 165.704 5.39153V49.8385C165.703 50.4312 165.463 50.9994 165.037 51.4185C164.611 51.8376 164.032 52.0733 163.429 52.074Z" fill="white"/>
<path d="M76.9627 63.7867C76.7369 63.7861 76.5134 63.7417 76.3051 63.656C75.9941 63.5331 75.7281 63.3209 75.5419 63.0469C75.3556 62.773 75.2579 62.4503 75.2614 62.1209V53.5652L88.3794 53.2392L78.1474 63.2958C77.9928 63.4506 77.8085 63.5737 77.6051 63.658C77.4018 63.7422 77.1834 63.786 76.9627 63.7867Z" fill="#CCCCCC"/>
<path d="M152.352 25.6218H106.327C106.046 25.6222 105.767 25.5681 105.507 25.4626C105.247 25.357 105.011 25.2021 104.812 25.0067C104.612 24.8113 104.454 24.5792 104.347 24.3237C104.239 24.0682 104.183 23.7944 104.183 23.5178C104.183 23.2413 104.239 22.9674 104.347 22.712C104.454 22.4565 104.612 22.2244 104.812 22.029C105.011 21.8336 105.247 21.6787 105.507 21.5731C105.767 21.4676 106.046 21.4134 106.327 21.4138H152.352C152.92 21.4138 153.464 21.6355 153.866 22.0301C154.267 22.4247 154.493 22.9598 154.493 23.5178C154.493 24.0758 154.267 24.611 153.866 25.0056C153.464 25.4002 152.92 25.6218 152.352 25.6218Z" fill="#CCCCCC"/>
<path d="M137.367 16.6798H106.327C105.759 16.6798 105.215 16.4581 104.814 16.0636C104.412 15.669 104.187 15.1338 104.187 14.5758C104.187 14.0178 104.412 13.4826 104.814 13.0881C105.215 12.6935 105.759 12.4718 106.327 12.4718H137.367C137.935 12.4718 138.479 12.6935 138.881 13.0881C139.282 13.4826 139.508 14.0178 139.508 14.5758C139.508 15.1338 139.282 15.669 138.881 16.0636C138.479 16.4581 137.935 16.6798 137.367 16.6798Z" fill="#CCCCCC"/>
<path d="M87.2749 25.6219C90.9695 25.6219 93.9645 22.6781 93.9645 19.0469C93.9645 15.4156 90.9695 12.4719 87.2749 12.4719C83.5803 12.4719 80.5852 15.4156 80.5852 19.0469C80.5852 22.6781 83.5803 25.6219 87.2749 25.6219Z" fill="#1778F2"/>
<path d="M138.169 42.7582C139.351 42.7582 140.309 41.8162 140.309 40.6542C140.309 39.4922 139.351 38.5502 138.169 38.5502C136.986 38.5502 136.028 39.4922 136.028 40.6542C136.028 41.8162 136.986 42.7582 138.169 42.7582Z" fill="#E6E6E6"/>
<path d="M145.661 42.7582C146.843 42.7582 147.802 41.8162 147.802 40.6542C147.802 39.4922 146.843 38.5502 145.661 38.5502C144.479 38.5502 143.52 39.4922 143.52 40.6542C143.52 41.8162 144.479 42.7582 145.661 42.7582Z" fill="#E6E6E6"/>
<path d="M153.153 42.7582C154.336 42.7582 155.294 41.8162 155.294 40.6542C155.294 39.4922 154.336 38.5502 153.153 38.5502C151.971 38.5502 151.013 39.4922 151.013 40.6542C151.013 41.8162 151.971 42.7582 153.153 42.7582Z" fill="#E6E6E6"/>
<path d="M241.344 87.6312H327.585C328.755 87.6325 329.878 88.0901 330.705 88.9036C331.533 89.7171 331.999 90.8202 332 91.9707V217.661C331.999 218.811 331.533 219.914 330.705 220.728C329.878 221.541 328.755 221.999 327.585 222H241.344C240.173 221.999 239.051 221.541 238.223 220.728C237.396 219.914 236.93 218.811 236.929 217.661V91.9707C236.93 90.8202 237.396 89.7171 238.223 88.9036C239.051 88.0901 240.173 87.6325 241.344 87.6312Z" fill="#F2F2F2"/>
<path d="M242.414 90.7872H326.514C327.117 90.7879 327.696 91.0236 328.122 91.4427C328.548 91.8618 328.788 92.43 328.789 93.0227V216.609C328.788 217.201 328.548 217.769 328.122 218.189C327.696 218.608 327.117 218.843 326.514 218.844H242.414C241.811 218.843 241.233 218.608 240.807 218.189C240.38 217.769 240.14 217.201 240.14 216.609V93.0227C240.14 92.43 240.38 91.8618 240.807 91.4427C241.233 91.0236 241.811 90.7879 242.414 90.7872Z" fill="white"/>
<path d="M244.966 151.268H151.846C150.676 151.266 149.553 150.809 148.726 149.995C147.898 149.182 147.432 148.079 147.431 146.928V100.377C147.432 99.2266 147.898 98.1236 148.726 97.31C149.553 96.4965 150.676 96.0389 151.846 96.0376H244.966C246.137 96.0389 247.259 96.4965 248.087 97.31C248.914 98.1236 249.38 99.2266 249.381 100.377V146.928C249.38 148.079 248.914 149.182 248.087 149.995C247.259 150.809 246.137 151.266 244.966 151.268Z" fill="#CCCCCC"/>
<path d="M243.896 148.112H152.917C152.314 148.111 151.735 147.875 151.309 147.456C150.883 147.037 150.643 146.469 150.642 145.876V101.429C150.643 100.836 150.883 100.268 151.309 99.8492C151.735 99.4301 152.314 99.1943 152.917 99.1937H243.896C244.499 99.1943 245.077 99.4301 245.503 99.8492C245.93 100.268 246.17 100.836 246.17 101.429V145.876C246.17 146.469 245.93 147.037 245.503 147.456C245.077 147.875 244.499 148.111 243.896 148.112Z" fill="white"/>
<path d="M238.627 159.333L228.395 149.277L241.513 149.603V158.159C241.516 158.488 241.419 158.811 241.232 159.085C241.046 159.359 240.78 159.571 240.469 159.694C240.261 159.779 240.037 159.824 239.812 159.824C239.591 159.824 239.373 159.78 239.169 159.696C238.966 159.611 238.782 159.488 238.627 159.333Z" fill="#CCCCCC"/>
<path d="M232.819 121.659H186.794C186.512 121.66 186.234 121.606 185.974 121.5C185.713 121.395 185.477 121.24 185.278 121.044C185.079 120.849 184.921 120.617 184.813 120.361C184.705 120.106 184.65 119.832 184.65 119.555C184.65 119.279 184.705 119.005 184.813 118.75C184.921 118.494 185.079 118.262 185.278 118.067C185.477 117.871 185.713 117.716 185.974 117.611C186.234 117.505 186.512 117.451 186.794 117.451H232.819C233.1 117.451 233.379 117.505 233.639 117.611C233.899 117.716 234.135 117.871 234.334 118.067C234.533 118.262 234.691 118.494 234.799 118.75C234.907 119.005 234.962 119.279 234.962 119.555C234.962 119.832 234.907 120.106 234.799 120.361C234.691 120.617 234.533 120.849 234.334 121.044C234.135 121.24 233.899 121.395 233.639 121.5C233.379 121.606 233.1 121.66 232.819 121.659Z" fill="#CCCCCC"/>
<path d="M217.834 112.717H186.794C186.513 112.717 186.234 112.663 185.975 112.557C185.715 112.452 185.479 112.297 185.28 112.101C185.081 111.906 184.924 111.674 184.816 111.419C184.708 111.163 184.653 110.89 184.653 110.613C184.653 110.337 184.708 110.064 184.816 109.808C184.924 109.553 185.081 109.321 185.28 109.126C185.479 108.93 185.715 108.775 185.975 108.67C186.234 108.564 186.513 108.509 186.794 108.509H217.834C218.401 108.509 218.946 108.731 219.347 109.126C219.749 109.52 219.974 110.055 219.974 110.613C219.974 111.171 219.749 111.707 219.347 112.101C218.946 112.496 218.401 112.717 217.834 112.717Z" fill="#CCCCCC"/>
<path d="M167.741 121.659C171.436 121.659 174.431 118.716 174.431 115.084C174.431 111.453 171.436 108.509 167.741 108.509C164.047 108.509 161.052 111.453 161.052 115.084C161.052 118.716 164.047 121.659 167.741 121.659Z" fill="#1778F2"/>
<path d="M218.635 138.796C219.817 138.796 220.776 137.854 220.776 136.692C220.776 135.53 219.817 134.588 218.635 134.588C217.453 134.588 216.494 135.53 216.494 136.692C216.494 137.854 217.453 138.796 218.635 138.796Z" fill="#E6E6E6"/>
<path d="M226.127 138.796C227.31 138.796 228.268 137.854 228.268 136.692C228.268 135.53 227.31 134.588 226.127 134.588C224.945 134.588 223.987 135.53 223.987 136.692C223.987 137.854 224.945 138.796 226.127 138.796Z" fill="#E6E6E6"/>
<path d="M233.62 138.796C234.802 138.796 235.761 137.854 235.761 136.692C235.761 135.53 234.802 134.588 233.62 134.588C232.438 134.588 231.479 135.53 231.479 136.692C231.479 137.854 232.438 138.796 233.62 138.796Z" fill="#E6E6E6"/>
<path d="M291.212 142.539C290.086 141.673 288.704 141.187 287.274 141.156C285.844 141.124 284.442 141.548 283.277 142.364C282.751 142.735 282.281 143.177 281.882 143.677L269.13 166.923L257.361 175.662C256.971 175.951 256.698 176.367 256.592 176.835C256.512 177.179 256.527 177.537 256.634 177.874L257.791 181.542C257.915 181.936 258.157 182.284 258.486 182.54C258.614 182.635 258.752 182.716 258.898 182.783C258.915 182.792 258.934 182.8 258.953 182.806C259.209 182.914 259.486 182.969 259.765 182.968C260.044 182.968 260.32 182.911 260.576 182.801L274.371 176.921L274.522 176.853C279.172 174.831 282.927 171.233 285.102 166.716L292.356 151.67C293.431 150.308 293.914 148.583 293.7 146.873C293.486 145.162 292.591 143.604 291.212 142.539Z" fill="#3F3D56"/>
<path d="M292.674 133.973C298.879 133.973 303.908 129.03 303.908 122.932C303.908 116.834 298.879 111.89 292.674 111.89C286.47 111.89 281.44 116.834 281.44 122.932C281.44 129.03 286.47 133.973 292.674 133.973Z" fill="#FFB8B8"/>
<path d="M308.145 151.845C307.781 147.84 305.855 144.129 302.771 141.487C299.802 138.904 295.911 137.584 291.953 137.819C288.18 138.066 285.28 139.59 283.277 142.364C282.246 143.848 281.485 145.497 281.026 147.237C278.748 155.293 276.347 167.094 274.522 176.853C273.498 182.302 272.656 187.117 272.112 190.286C272.103 190.354 272.094 190.416 272.08 190.484C271.869 191.72 271.709 192.687 271.604 193.33C271.538 193.726 271.593 194.133 271.763 194.498C271.934 194.863 272.211 195.17 272.56 195.379C272.565 195.384 272.574 195.388 272.578 195.393C274.887 196.75 277.522 197.478 280.212 197.501C283.469 197.501 287.375 196.387 291.487 192.786C291.766 192.536 292.126 192.391 292.503 192.376C292.88 192.36 293.25 192.475 293.55 192.7L293.998 193.042L298.426 196.427C298.771 196.693 299.194 196.842 299.633 196.854C299.852 196.864 300.07 196.835 300.278 196.769C300.297 196.766 300.315 196.762 300.333 196.755C300.652 196.653 300.941 196.475 301.174 196.238C301.407 196 301.577 195.71 301.669 195.393C301.915 194.548 302.19 193.572 302.492 192.484C302.615 192.03 302.743 191.554 302.876 191.059C303.457 188.874 304.102 186.339 304.733 183.579C306.938 173.931 309.032 161.537 308.145 151.845Z" fill="#3F3D56"/>
<path d="M312.431 164.185L308.689 147.943C308.68 146.341 308.072 144.798 306.981 143.607C305.889 142.417 304.391 141.663 302.771 141.487C302.538 141.465 302.3 141.451 302.057 141.451C301.184 141.454 300.319 141.625 299.513 141.956C298.707 142.287 297.975 142.771 297.36 143.38C296.744 143.989 296.257 144.712 295.926 145.506C295.594 146.301 295.426 147.152 295.43 148.01L299.994 174.035L299.981 174.089L297.561 183.066L296.221 188.052C296.207 188.099 296.198 188.147 296.193 188.196C296.108 188.614 296.164 189.048 296.354 189.432C296.506 189.754 296.743 190.03 297.04 190.232L299.633 191.994L300.251 192.417C300.594 192.652 301.003 192.778 301.422 192.777C301.583 192.776 301.744 192.758 301.902 192.723C301.92 192.718 301.934 192.714 301.952 192.709C302.142 192.661 302.324 192.585 302.492 192.484C302.803 192.299 303.059 192.035 303.233 191.72L310.395 178.724C312.842 174.279 313.565 169.114 312.431 164.185Z" fill="#3F3D56"/>
<path opacity="0.2" d="M296.341 158.984L300.457 176.067L294.511 190.453L298.628 176.517L296.341 158.984Z" fill="black"/>
<path d="M301.766 129.567C302.708 129.238 303.573 128.728 304.313 128.067C304.64 127.78 304.991 127.514 305.317 127.227C308.198 124.695 309.064 120.34 307.778 116.758C306.493 113.175 303.296 110.422 299.644 109.181C295.991 107.94 291.943 108.109 288.234 109.177C284.239 110.328 280.238 112.918 279.289 116.902C279.036 117.963 279.027 119.139 279.762 120.034C279.982 120.304 280.272 120.512 280.6 120.638C281.895 121.126 282.616 120.13 283.583 119.707C284.911 119.126 286.545 119.754 287.47 120.857C288.394 121.96 288.737 123.424 288.878 124.846C288.907 125.723 289.047 126.593 289.295 127.436C289.424 127.857 289.66 128.238 289.981 128.544C290.302 128.85 290.698 129.07 291.129 129.184C292.172 129.373 293.174 128.668 293.829 127.849C294.485 127.031 294.95 126.059 295.725 125.348C296.499 124.638 297.763 124.263 298.612 124.886C298.897 125.122 299.137 125.405 299.321 125.722C300.623 127.688 300.464 127.602 301.766 129.567H301.766Z" fill="#2F2E41"/>
</svg>
