<svg width="420" height="301" viewBox="0 0 420 301" fill="none" xmlns="http://www.w3.org/2000/svg">
<g clip-path="url(#clip0_222_67)">
<path d="M409.18 268.683C407.771 258.225 401.085 247.963 390.898 244.635C394.991 255.378 395.086 267.198 391.164 278.003C389.636 282.164 387.496 286.637 388.998 290.807C389.933 293.402 392.184 295.376 394.693 296.601C397.202 297.827 399.979 298.398 402.722 298.958L403.265 299.392C407.534 289.714 410.589 279.14 409.18 268.683Z" fill="#F0F0F0"/>
<path d="M390.799 244.834C396.768 251.302 400.511 259.454 401.497 268.131C401.743 269.995 401.688 271.886 401.335 273.734C400.932 275.523 400.048 277.173 398.776 278.513C397.616 279.786 396.279 280.955 395.454 282.483C395.043 283.271 394.807 284.136 394.76 285.02C394.713 285.904 394.857 286.788 395.183 287.614C395.939 289.692 397.41 291.38 398.907 292.98C400.569 294.758 402.324 296.578 403.044 298.946C403.131 299.233 403.579 299.083 403.492 298.797C402.24 294.677 398.141 292.363 396.166 288.659C395.244 286.931 394.847 284.919 395.683 283.08C396.414 281.473 397.792 280.265 398.978 278.986C400.239 277.697 401.158 276.124 401.657 274.405C402.105 272.581 402.234 270.696 402.038 268.829C401.665 264.62 400.621 260.495 398.944 256.605C397.055 252.155 394.405 248.055 391.109 244.483C390.905 244.262 390.596 244.615 390.799 244.834Z" fill="white"/>
<path d="M401.347 265.319C402.806 264.959 404.087 264.1 404.962 262.898C405.837 261.695 406.248 260.226 406.122 258.753C406.096 258.455 405.623 258.481 405.65 258.779C405.77 260.151 405.386 261.519 404.57 262.638C403.753 263.756 402.556 264.551 401.195 264.878C400.899 264.95 401.053 265.39 401.347 265.319Z" fill="white"/>
<path d="M399.451 277.944C396.798 276.415 394.829 273.96 393.936 271.068C393.848 270.781 393.4 270.931 393.488 271.217C394.423 274.225 396.477 276.776 399.242 278.361C399.505 278.511 399.713 278.094 399.451 277.944Z" fill="white"/>
<path d="M396.619 252.599C396.084 252.854 395.493 252.974 394.899 252.949C394.305 252.924 393.726 252.755 393.215 252.456C392.954 252.302 392.746 252.72 393.006 252.873C393.572 253.2 394.211 253.387 394.867 253.416C395.524 253.445 396.177 253.316 396.771 253.039C396.829 253.018 396.877 252.975 396.905 252.921C396.932 252.866 396.937 252.803 396.919 252.744C396.899 252.686 396.856 252.638 396.8 252.611C396.744 252.584 396.679 252.579 396.619 252.599L396.619 252.599Z" fill="white"/>
<path d="M360.079 263.573C360.24 263.674 360.4 263.774 360.561 263.879C362.712 265.245 364.746 266.78 366.644 268.47C366.793 268.598 366.942 268.731 367.087 268.863C371.615 272.981 375.325 277.89 378.03 283.339C379.104 285.509 380.008 287.755 380.735 290.06C381.74 293.242 382.571 296.771 384.528 299.365C384.73 299.638 384.948 299.899 385.182 300.145L402.684 300.009C402.724 299.989 402.764 299.973 402.804 299.953L403.503 299.979C403.474 299.857 403.441 299.732 403.412 299.611C403.395 299.54 403.375 299.47 403.358 299.399C403.346 299.352 403.333 299.305 403.325 299.262C403.321 299.246 403.317 299.231 403.313 299.219C403.304 299.176 403.292 299.137 403.284 299.098C403.102 298.397 402.916 297.696 402.724 296.995C402.724 296.991 402.724 296.991 402.72 296.987C401.309 291.633 399.256 286.462 396.605 281.582C396.524 281.438 396.443 281.289 396.354 281.145C395.127 278.985 393.723 276.928 392.155 274.993C391.293 273.937 390.377 272.923 389.411 271.958C386.91 269.467 384.025 267.379 380.863 265.77C374.559 262.562 367.282 261.371 360.589 263.412C360.418 263.464 360.25 263.517 360.079 263.573Z" fill="#F0F0F0"/>
<path d="M360.12 263.791C368.85 265.424 376.833 269.718 382.937 276.063C384.276 277.406 385.391 278.948 386.241 280.633C387.015 282.3 387.321 284.14 387.127 285.962C386.98 287.665 386.629 289.39 386.906 291.098C387.062 291.97 387.403 292.8 387.907 293.534C388.412 294.267 389.068 294.888 389.834 295.355C391.711 296.567 393.92 297.044 396.096 297.436C398.512 297.872 401.029 298.287 403.054 299.752C403.3 299.93 403.566 299.545 403.321 299.368C399.797 296.819 395.106 297.396 391.259 295.607C389.464 294.773 387.914 293.401 387.456 291.439C387.054 289.722 387.414 287.943 387.578 286.221C387.794 284.446 387.565 282.646 386.91 280.978C386.15 279.257 385.097 277.675 383.797 276.301C380.92 273.161 377.559 270.485 373.836 268.371C369.601 265.935 364.973 264.229 360.153 263.327C359.855 263.271 359.824 263.736 360.12 263.791Z" fill="white"/>
<path d="M381.094 273.907C382.039 272.756 382.536 271.312 382.498 269.835C382.459 268.357 381.887 266.94 380.884 265.839C380.68 265.616 380.319 265.917 380.523 266.14C381.459 267.164 381.992 268.483 382.025 269.86C382.058 271.236 381.589 272.578 380.703 273.645C380.511 273.877 380.903 274.137 381.094 273.907Z" fill="white"/>
<path d="M387.317 285.108C384.261 285.457 381.185 284.662 378.7 282.881C378.454 282.704 378.188 283.089 378.434 283.265C381.023 285.114 384.226 285.935 387.405 285.565C387.708 285.53 387.618 285.073 387.317 285.108Z" fill="white"/>
<path d="M369.526 266.547C369.255 267.067 368.856 267.513 368.367 267.845C367.877 268.176 367.311 268.383 366.72 268.446C366.417 268.478 366.507 268.935 366.808 268.903C367.461 268.83 368.086 268.601 368.628 268.236C369.169 267.871 369.612 267.381 369.917 266.809C369.95 266.757 369.962 266.695 369.951 266.635C369.939 266.575 369.905 266.522 369.854 266.486C369.802 266.452 369.739 266.439 369.677 266.45C369.616 266.462 369.561 266.497 369.526 266.547L369.526 266.547Z" fill="white"/>
<path d="M293.838 163.478C294.142 163.871 294.53 164.194 294.975 164.424C295.42 164.653 295.911 164.785 296.414 164.808C296.916 164.831 297.417 164.746 297.882 164.558C298.347 164.371 298.765 164.085 299.105 163.722L310.313 168.511L309.221 162.363L298.746 158.758C298.087 158.236 297.255 157.97 296.41 158.01C295.564 158.05 294.763 158.394 294.158 158.976C293.553 159.557 293.186 160.337 293.127 161.167C293.068 161.996 293.321 162.819 293.838 163.478V163.478Z" fill="#A0616A"/>
<path d="M304.035 160.004L325.445 162.731L347.525 149.662C348.706 148.963 350.024 148.518 351.393 148.356C352.761 148.193 354.149 148.318 355.465 148.721C356.781 149.124 357.996 149.796 359.028 150.693C360.061 151.59 360.889 152.692 361.457 153.926C362.481 156.16 362.598 158.694 361.784 161.01C360.969 163.325 359.284 165.247 357.074 166.382L327.404 176.771L327.349 176.79L301.317 165.397L304.035 160.004Z" fill="#3F3D56"/>
<path d="M358.752 296.057H354.2L352.035 278.807L358.753 278.808L358.752 296.057Z" fill="#A0616A"/>
<path d="M359.913 300.392L345.237 300.391V300.209C345.237 298.721 345.839 297.293 346.91 296.24C347.981 295.188 349.434 294.597 350.949 294.596H350.95L353.63 292.598L358.632 294.597L359.913 294.597L359.913 300.392Z" fill="#2F2E41"/>
<path d="M341.114 293.239L336.675 294.224L330.696 277.867L337.248 276.413L341.114 293.239Z" fill="#A0616A"/>
<path d="M343.218 297.216L328.903 300.392L328.862 300.214C328.529 298.762 328.796 297.239 329.605 295.981C330.414 294.722 331.698 293.831 333.176 293.503L333.176 293.503L335.343 290.974L340.67 291.841L341.92 291.563L343.218 297.216Z" fill="#2F2E41"/>
<path d="M364.516 190.602C366.65 196.926 366.425 203.79 364.004 211.158L362.969 252.637C362.969 252.637 364.511 279.838 359.535 289.41H352.318L348.745 250.153L348.296 223.803L332.824 246.033L342.679 288.768L333.796 289.548L317.805 243.171L337.535 198.177L364.516 190.602Z" fill="#2F2E41"/>
<path d="M335.302 196.716L337.082 192.344L335.905 188.585L335.637 152.165L335.636 152.137L339.907 145.446L339.942 141.214L351.867 140.928L353.16 144.155L355.719 145.658C358.51 147.303 360.81 149.64 362.389 152.435C363.968 155.23 364.77 158.384 364.714 161.581L364.252 186.154L365.442 188.492C365.765 189.127 365.945 189.824 365.968 190.533C365.992 191.243 365.859 191.95 365.579 192.604C365.298 193.258 364.877 193.845 364.344 194.325C363.811 194.804 363.178 195.165 362.49 195.381L336.248 199.506L335.302 196.716Z" fill="#3F3D56"/>
<path d="M344.813 136.915C350.797 136.915 355.648 132.149 355.648 126.269C355.648 120.389 350.797 115.622 344.813 115.622C338.828 115.622 333.977 120.389 333.977 126.269C333.977 132.149 338.828 136.915 344.813 136.915Z" fill="#A0616A"/>
<path d="M356.095 128.59C356.418 127.252 356.27 125.369 356.087 124.022C355.853 122.246 355.242 120.538 354.294 119.009C353.345 117.48 352.08 116.164 350.58 115.145C350.005 114.716 349.322 114.45 348.604 114.374C348.246 114.344 347.886 114.427 347.578 114.61C347.27 114.793 347.029 115.067 346.889 115.393C346.709 114.95 346.437 114.548 346.092 114.212C345.747 113.876 345.336 113.612 344.883 113.439C343.974 113.096 342.997 112.967 342.028 113.061C340.15 113.213 338.349 113.862 336.816 114.938C335.284 116.015 334.076 117.479 333.322 119.176C333.032 119.851 332.224 117.356 331.857 117.994C331.52 118.658 330.932 119.165 330.219 119.408C329.501 119.605 329.209 122.514 328.926 121.835C328.707 122.337 328.62 122.884 328.674 123.427C328.728 123.97 328.921 124.491 329.235 124.941C329.549 125.391 329.974 125.756 330.47 126.001C330.966 126.246 331.517 126.364 332.072 126.344C332.798 126.252 333.517 126.117 334.226 125.939C335.527 125.778 336.843 126.09 337.926 126.818C339.009 127.545 339.783 128.637 340.103 129.887C340.301 129.16 340.617 128.469 341.039 127.841C341.253 127.529 341.54 127.271 341.876 127.09C342.212 126.909 342.587 126.809 342.97 126.799C343.336 126.84 343.69 126.954 344.009 127.135C344.329 127.315 344.608 127.558 344.828 127.848C345.305 128.399 345.664 129.041 346.144 129.588C347.554 131.194 349.461 134.94 351.47 134.667C353.056 134.451 355.654 130.416 356.095 128.59Z" fill="#2F2E41"/>
<path d="M304.42 191.734C304.881 191.931 305.38 192.026 305.883 192.013C306.386 192 306.879 191.878 307.329 191.657C307.778 191.436 308.173 191.121 308.486 190.734C308.798 190.347 309.02 189.897 309.136 189.416L321.296 188.209L317.284 183.371L306.352 185.259C305.518 185.121 304.66 185.288 303.943 185.729C303.225 186.171 302.697 186.855 302.459 187.653C302.221 188.451 302.289 189.308 302.65 190.06C303.012 190.812 303.641 191.408 304.42 191.734Z" fill="#A0616A"/>
<path d="M311.586 183.805L331.619 175.896L344.375 153.888C345.058 152.711 345.986 151.689 347.099 150.89C348.212 150.091 349.485 149.533 350.833 149.252C352.182 148.971 353.575 148.974 354.923 149.26C356.27 149.547 357.54 150.11 358.65 150.914C360.655 152.37 362.019 154.524 362.46 156.936C362.902 159.347 362.389 161.833 361.026 163.885L340.315 187.202L340.276 187.246L311.899 189.815L311.586 183.805Z" fill="#3F3D56"/>
<path d="M419.381 301H238.53C238.448 301 238.368 300.985 238.292 300.954C238.217 300.924 238.149 300.879 238.091 300.823C238.033 300.766 237.988 300.699 237.956 300.625C237.925 300.551 237.909 300.472 237.909 300.392C237.909 300.312 237.925 300.233 237.956 300.159C237.988 300.085 238.033 300.018 238.091 299.961C238.149 299.905 238.217 299.86 238.292 299.83C238.368 299.799 238.448 299.784 238.53 299.784H419.381C419.463 299.784 419.543 299.799 419.619 299.83C419.694 299.86 419.762 299.905 419.82 299.961C419.878 300.018 419.923 300.085 419.954 300.159C419.986 300.233 420.002 300.312 420.002 300.392C420.002 300.472 419.986 300.551 419.954 300.625C419.923 300.699 419.878 300.766 419.82 300.823C419.762 300.879 419.694 300.924 419.619 300.954C419.543 300.985 419.463 301 419.381 301Z" fill="#CCCCCC"/>
<path d="M302.503 202.116H220.317C219.744 202.115 219.195 201.891 218.79 201.494C218.385 201.096 218.158 200.556 218.157 199.993V167.227C218.158 166.664 218.385 166.125 218.79 165.727C219.195 165.329 219.744 165.105 220.317 165.104H302.503C303.076 165.105 303.625 165.329 304.03 165.727C304.435 166.125 304.663 166.664 304.664 167.227V199.993C304.663 200.556 304.435 201.096 304.03 201.494C303.625 201.892 303.076 202.115 302.503 202.116Z" fill="#1778F2"/>
<path d="M294.678 217.834H228.143C227.802 217.835 227.465 217.769 227.15 217.641C226.835 217.514 226.549 217.326 226.307 217.09C226.066 216.853 225.875 216.572 225.745 216.263C225.614 215.954 225.547 215.622 225.547 215.287C225.547 214.952 225.614 214.621 225.745 214.312C225.875 214.002 226.066 213.721 226.307 213.485C226.549 213.248 226.835 213.061 227.15 212.933C227.465 212.805 227.802 212.74 228.143 212.74H294.678C298.021 212.694 298.054 217.881 294.678 217.834Z" fill="#E4E4E4"/>
<path d="M294.678 229.508H228.143C227.455 229.508 226.796 229.24 226.31 228.762C225.824 228.285 225.551 227.637 225.551 226.961C225.551 226.286 225.824 225.638 226.31 225.16C226.796 224.683 227.455 224.414 228.143 224.414H294.678C298.021 224.368 298.054 229.555 294.678 229.508Z" fill="#E4E4E4"/>
<path d="M294.678 241.183H228.143C227.802 241.183 227.465 241.118 227.15 240.99C226.835 240.862 226.549 240.675 226.307 240.438C226.066 240.201 225.875 239.92 225.745 239.611C225.614 239.302 225.547 238.97 225.547 238.636C225.547 238.301 225.614 237.969 225.745 237.66C225.875 237.351 226.066 237.07 226.307 236.833C226.549 236.597 226.835 236.409 227.15 236.281C227.465 236.154 227.802 236.088 228.143 236.089H294.678C298.021 236.043 298.054 241.229 294.678 241.183Z" fill="#E4E4E4"/>
<path d="M15.0771 115.208C0.609248 96.5298 -5.21904 70.0285 5.55007 49.0766C16.2366 72.3425 34.9541 91.1444 58.3909 102.156C67.4452 106.37 77.9623 110.131 82.2483 119.029C84.9152 124.566 84.5118 131.15 82.5081 136.95C80.5042 142.751 77.0322 147.934 73.5966 153.045L73.4328 154.566C51.2447 145.868 29.545 133.886 15.0771 115.208Z" fill="#F0F0F0"/>
<path d="M6.02386 49.2374C6.91061 68.4418 14.0472 87.4922 26.3241 102.497C28.9784 105.741 31.9583 108.805 35.5229 111.091C39.015 113.293 43.0435 114.537 47.1899 114.692C51.0531 114.912 55.0307 114.699 58.7719 115.838C62.7154 117.04 65.6543 119.886 67.3898 123.52C69.5133 127.965 69.8844 132.896 70.0769 137.729C70.2905 143.096 70.4258 148.674 73.0699 153.521C73.3903 154.108 72.4442 154.562 72.1243 153.976C67.5241 145.544 70.3 135.576 67.5057 126.684C66.2019 122.536 63.6176 118.748 59.3628 117.135C55.6422 115.724 51.5403 115.941 47.6268 115.75C43.5175 115.551 39.6694 114.697 36.0855 112.648C32.4194 110.552 29.3114 107.596 26.5843 104.433C20.4549 97.2148 15.5187 89.0946 11.9565 80.3697C7.8347 70.4343 5.47305 59.8793 4.97368 49.1613C4.94305 48.4979 5.99344 48.5783 6.02387 49.2374L6.02386 49.2374Z" fill="white"/>
<path d="M22.0717 97.8268C19.1935 99.5071 15.8011 100.127 12.5004 99.577C9.19965 99.0266 6.20553 97.3412 4.05271 94.822C3.61889 94.3107 4.40701 93.6243 4.84141 94.1362C6.8417 96.4858 9.6309 98.0555 12.7056 98.5619C15.7803 99.0682 18.9379 98.478 21.6086 96.8977C22.1894 96.5549 22.6491 97.486 22.0717 97.8268Z" fill="white"/>
<path d="M45.2161 114.833C46.9638 108.331 46.1533 101.421 42.9462 95.481C42.628 94.8926 43.574 94.4384 43.8918 95.026C47.2174 101.214 48.046 108.407 46.2122 115.168C46.0369 115.813 45.0418 115.474 45.2161 114.833V114.833Z" fill="white"/>
<path d="M9.23042 70.4638C10.4819 70.0417 11.6072 69.3207 12.505 68.3657C13.4029 67.4106 14.0453 66.2515 14.3745 64.9922C14.5413 64.3459 15.5363 64.6854 15.3706 65.3274C15.0002 66.7171 14.2892 67.9964 13.2996 69.0537C12.3099 70.1111 11.0718 70.9142 9.69348 71.3929C9.5674 71.4487 9.42442 71.4553 9.2936 71.4113C9.16278 71.3672 9.05392 71.2759 8.98916 71.1559C8.92847 71.0325 8.91978 70.8907 8.96495 70.7611C9.01013 70.6315 9.10553 70.5247 9.23042 70.4638Z" fill="white"/>
<path d="M84.4239 31.4747C84.3314 31.8812 84.2389 32.2876 84.1523 32.7006C82.9375 38.1712 82.177 43.7297 81.8784 49.3213C81.8483 49.7533 81.8244 50.1914 81.807 50.6233C81.2336 64.1023 83.2121 77.5687 87.6418 90.338C89.4093 95.4176 91.5674 100.358 94.0977 105.116C97.5924 111.686 101.914 118.537 102.964 125.649C103.082 126.39 103.154 127.137 103.178 127.887L75.3335 154.644C75.2392 154.674 75.1507 154.71 75.0561 154.74L73.9941 155.858C73.8461 155.622 73.6978 155.374 73.5499 155.137C73.4635 155 73.3833 154.858 73.2969 154.721C73.2413 154.628 73.1859 154.534 73.1303 154.454C73.1117 154.423 73.0934 154.391 73.0809 154.367C73.0253 154.286 72.9824 154.205 72.933 154.13C72.1003 152.744 71.2761 151.35 70.4604 149.948C70.4542 149.942 70.4542 149.942 70.4542 149.93C64.2665 139.23 58.9336 127.928 55.5159 116.191C55.4132 115.838 55.304 115.479 55.2139 115.113C53.7033 109.814 52.636 104.403 52.0226 98.9327C51.6966 95.9365 51.5251 92.926 51.5089 89.9127C51.4821 82.1268 52.702 74.3852 55.1236 66.9718C59.9534 52.1938 69.5394 39.0981 83.3624 32.0064C83.7161 31.8252 84.0639 31.6497 84.4239 31.4747Z" fill="#F0F0F0"/>
<path d="M84.7069 31.8821C73.6475 47.7404 67.6726 67.1729 68.2808 86.4164C68.4123 90.5768 68.9142 94.786 70.3596 98.7201C71.7985 102.544 74.2533 105.92 77.469 108.497C80.4182 110.958 83.725 113.141 86.0139 116.264C88.4265 119.556 89.0288 123.567 88.1881 127.495C87.1596 132.301 84.4349 136.457 81.6266 140.43C78.5086 144.842 75.1988 149.376 74.3403 154.81C74.2363 155.468 73.2026 155.271 73.3065 154.614C74.8002 145.16 83.1246 138.843 86.3415 130.091C87.8425 126.007 88.1001 121.454 85.6914 117.649C83.5851 114.321 80.177 112.068 77.169 109.601C74.0104 107.01 71.4611 104.052 69.855 100.296C68.2121 96.4535 67.5416 92.2548 67.3025 88.1159C66.8314 78.7266 67.8657 69.3228 70.3676 60.2492C73.1645 49.878 77.7464 40.0533 83.9151 31.2002C84.2971 30.6524 85.0865 31.338 84.707 31.8822L84.7069 31.8821Z" fill="white"/>
<path d="M67.7472 80.1716C64.4195 79.8106 61.3308 78.299 59.0327 75.9069C56.7345 73.5148 55.3765 70.3979 55.2013 67.1128C55.1682 66.448 56.2181 66.3661 56.2512 67.0319C56.4087 70.0912 57.6739 72.9945 59.8186 75.2178C61.9632 77.441 64.8461 78.8377 67.9468 79.1559C68.6206 79.2258 68.4172 80.2411 67.7473 80.1716H67.7472Z" fill="white"/>
<path d="M75.8063 107.442C81.1855 103.285 84.7725 97.288 85.8518 90.6476C85.9582 89.9896 86.9919 90.1865 86.8856 90.8437C85.7493 97.7518 82.0036 103.985 76.3961 108.299C75.8613 108.71 75.2744 107.851 75.8063 107.442Z" fill="white"/>
<path d="M74.2607 50.7272C75.5187 51.1305 76.8589 51.2205 78.1609 50.9892C79.463 50.7578 80.6862 50.2122 81.7207 49.4016C82.2499 48.9843 82.8364 49.8439 82.3106 50.2585C81.1634 51.1489 79.8118 51.7498 78.3737 52.0086C76.9357 52.2673 75.455 52.1762 74.0612 51.743C73.9263 51.713 73.8081 51.6336 73.7306 51.5211C73.6532 51.4085 73.6222 51.2712 73.644 51.137C73.6712 51.0027 73.7511 50.8843 73.8666 50.8075C73.9821 50.7308 74.1237 50.7019 74.2607 50.7272Z" fill="white"/>
<path d="M91.8502 83.6356C98.2926 83.6356 103.515 78.504 103.515 72.1738C103.515 65.8437 98.2926 60.712 91.8502 60.712C85.4078 60.712 80.1852 65.8437 80.1852 72.1738C80.1852 78.504 85.4078 83.6356 91.8502 83.6356Z" fill="#2F2E41"/>
<path d="M155.678 182.472H73.4915C72.9188 182.471 72.3697 182.247 71.9647 181.849C71.5598 181.451 71.332 180.912 71.3313 180.349V147.583C71.332 147.02 71.5598 146.48 71.9647 146.082C72.3697 145.684 72.9188 145.461 73.4915 145.46H155.678C156.25 145.461 156.799 145.684 157.204 146.082C157.609 146.48 157.837 147.02 157.838 147.583V180.349C157.837 180.912 157.609 181.451 157.204 181.849C156.799 182.247 156.25 182.471 155.678 182.472Z" fill="#D1D3D4"/>
<path d="M147.852 198.19H81.3173C80.6318 198.187 79.9754 197.917 79.4917 197.44C79.0081 196.963 78.7366 196.316 78.7366 195.643C78.7366 194.969 79.0081 194.323 79.4917 193.846C79.9754 193.368 80.6318 193.099 81.3173 193.096H147.852C151.195 193.05 151.229 198.236 147.852 198.19Z" fill="#E4E4E4"/>
<path d="M147.852 209.864H81.3173C80.9765 209.865 80.639 209.799 80.3241 209.671C80.0092 209.543 79.723 209.356 79.4819 209.119C79.2408 208.883 79.0495 208.602 78.919 208.293C78.7885 207.983 78.7213 207.652 78.7213 207.317C78.7213 206.982 78.7885 206.651 78.919 206.341C79.0495 206.032 79.2408 205.751 79.4819 205.515C79.723 205.278 80.0092 205.091 80.3241 204.963C80.639 204.835 80.9765 204.769 81.3173 204.77H147.852C151.195 204.724 151.229 209.91 147.852 209.864Z" fill="#E4E4E4"/>
<path d="M147.852 221.538H81.3172C80.6297 221.538 79.9704 221.27 79.4842 220.792C78.9981 220.315 78.725 219.667 78.725 218.991C78.725 218.316 78.9981 217.668 79.4842 217.19C79.9704 216.712 80.6297 216.444 81.3172 216.444H147.852C151.195 216.398 151.229 221.585 147.852 221.538Z" fill="#E4E4E4"/>
<path d="M153.315 94.8091C152.999 95.2798 152.582 95.6766 152.093 95.9717C151.604 96.2668 151.055 96.4529 150.485 96.5171C149.915 96.5812 149.338 96.5217 148.793 96.3428C148.249 96.1639 147.752 95.8699 147.335 95.4816L118.214 107.696L118.98 100.614L147.36 89.8022C148.07 89.1587 148.996 88.7935 149.962 88.7759C150.928 88.7582 151.867 89.0894 152.601 89.7066C153.335 90.3237 153.813 91.184 153.945 92.1245C154.076 93.0649 153.852 94.0201 153.315 94.8091Z" fill="#FFB6B6"/>
<path d="M94.0397 94.1512C94.0397 94.1512 90.4391 97.5874 94.0123 102.009C97.5855 106.431 115.253 109.306 118.086 109.854C120.92 110.401 136.681 99.8667 136.681 99.8667L138.207 92.235L120.615 98.1657L94.0397 94.1512Z" fill="#1778F2"/>
<path d="M84.3701 120.223L84.6536 125.516C84.6536 125.516 83.8168 130.204 84.505 131.216C85.1881 132.223 103.827 132.35 103.827 132.35C103.827 132.35 105.059 125.827 106.119 120.117L84.3701 120.223Z" fill="#FFB6B6"/>
<path d="M137.96 190.208L141.856 189.435L140.741 173.969L134.99 175.111L137.96 190.208Z" fill="#FFB6B6"/>
<path d="M143.541 170.082L147.164 168.482L142.464 153.685L137.118 156.048L143.541 170.082Z" fill="#FFB6B6"/>
<path d="M146.697 161.745L139.876 165.54L123.054 138.98C111.245 146.797 99.697 150.54 88.0559 152.538C84.12 153.227 80.1072 152.878 79.3516 148.942C79.3163 148.758 79.2881 148.573 79.2671 148.387C78.8023 144.087 84.2453 138.576 84.9371 133.316L99.8334 132.437L101.67 134.752L118.897 124.345C119.734 123.851 120.661 123.524 121.627 123.384C122.592 123.243 123.576 123.292 124.522 123.527C125.468 123.762 126.357 124.179 127.139 124.753C127.92 125.327 128.578 126.048 129.075 126.873C129.189 127.057 129.294 127.246 129.392 127.44L146.697 161.745Z" fill="#2F2E41"/>
<path d="M142.522 179.613L134.717 180.325L120.566 151.888C106.533 154.259 93.2937 155.019 81.8427 152.15C79.9628 151.662 78.3537 150.467 77.3632 148.823C76.3727 147.179 76.0804 145.218 76.5493 143.364C76.5939 143.182 76.6455 143.002 76.704 142.824C78.0744 138.715 81.6618 135.808 84.4882 131.289L105.133 131.598L102.827 139.415L122.883 136.865C123.852 136.751 124.834 136.827 125.773 137.088C126.712 137.349 127.589 137.79 128.354 138.385C129.119 138.981 129.756 139.719 130.229 140.558C130.702 141.397 131.001 142.319 131.11 143.272C131.137 143.486 131.154 143.701 131.163 143.916L142.522 179.613Z" fill="#2F2E41"/>
<path d="M92.4312 84.6028C97.061 84.6028 100.814 80.915 100.814 76.3658C100.814 71.8166 97.061 68.1288 92.4312 68.1288C87.8013 68.1288 84.0481 71.8166 84.0481 76.3658C84.0481 80.915 87.8013 84.6028 92.4312 84.6028Z" fill="#FFB6B6"/>
<path d="M87.5167 87.5764L95.2032 88.4649C95.5274 88.5024 95.8315 88.6383 96.0733 88.8537C96.3152 89.069 96.4826 89.3532 96.5522 89.6665L97.7747 95.1626L105.395 103.98C105.395 103.98 108.131 109.021 107.105 114.734C106.079 120.448 105.628 124.693 105.628 124.693C105.628 124.693 85.1872 132.224 84.5031 131.215C83.819 130.207 83.597 125.627 83.597 125.627L80.8607 95.7164C80.8607 95.7164 83.9391 90.6753 85.6493 90.6753C86.753 90.6387 86.6114 88.1978 87.5167 87.5764Z" fill="#1778F2"/>
<path d="M105.836 126.532C106.914 126.532 107.787 125.502 107.787 124.231C107.787 122.96 106.914 121.93 105.836 121.93C104.758 121.93 103.884 122.96 103.884 124.231C103.884 125.502 104.758 126.532 105.836 126.532Z" fill="#6C63FF"/>
<path d="M136.026 186.226L141.967 183.301L143.086 185.867L150.598 187.36C150.97 187.433 151.307 187.621 151.561 187.897C151.816 188.172 151.974 188.52 152.013 188.89C152.052 189.26 151.969 189.633 151.777 189.953C151.585 190.274 151.294 190.526 150.946 190.673L143.688 193.73L141.329 191.718L141.948 194.462L139.212 195.615L136.026 186.226Z" fill="#2F2E41"/>
<path d="M141.841 168.851L147.728 165.824L148.894 168.371L156.432 169.733C156.804 169.8 157.145 169.982 157.404 170.253C157.663 170.524 157.828 170.87 157.873 171.239C157.919 171.608 157.843 171.982 157.657 172.306C157.471 172.63 157.184 172.887 156.839 173.039L149.636 176.221L147.242 174.251L147.91 176.984L145.194 178.184L141.841 168.851Z" fill="#2F2E41"/>
<path d="M87.6417 73.7821C85.427 73.7856 83.2654 73.1155 81.4537 71.8638L81.3932 71.8222V71.7497C81.3956 69.6447 82.2477 67.6267 83.7625 66.1382C85.2774 64.6498 87.3312 63.8126 89.4735 63.8102H92.8758C95.0181 63.8126 97.0719 64.6498 98.5868 66.1382C100.102 67.6267 100.954 69.6447 100.956 71.7497C100.954 72.2315 100.76 72.6934 100.417 73.037C100.073 73.3806 99.6062 73.5788 99.116 73.5893L87.8329 73.7804C87.7692 73.7815 87.7053 73.7821 87.6417 73.7821Z" fill="#2F2E41"/>
<path d="M121.384 137.855C120.813 137.907 120.237 137.835 119.697 137.645C119.157 137.454 118.666 137.15 118.258 136.752C117.851 136.355 117.537 135.875 117.339 135.346C117.141 134.817 117.063 134.252 117.112 133.69L89.2023 118.994L95.3067 115.154L121.638 130.158C122.593 130.3 123.462 130.782 124.08 131.511C124.698 132.241 125.022 133.168 124.991 134.117C124.96 135.066 124.575 135.97 123.91 136.659C123.246 137.348 122.347 137.774 121.384 137.855H121.384Z" fill="#FFB6B6"/>
<path d="M84.8471 91.9877C84.8471 91.9877 79.8667 91.3749 78.5884 96.8797C77.3102 102.384 86.0722 117.73 87.4091 120.245C88.746 122.76 106.967 128.261 106.967 128.261L113.983 124.66L98.2734 114.877L84.8471 91.9877Z" fill="#1778F2"/>
<path d="M93.7287 65.0377C94.513 64.0926 93.8999 62.6929 93.2567 61.6501C91.7829 59.2605 90.2359 56.9166 88.6158 54.6183C86.5912 51.7464 84.1382 48.744 80.6524 48.0555C77.4734 47.4276 74.2709 48.912 71.536 50.6236C68.8471 52.3065 66.1988 54.4264 65.1754 57.3931C64.196 60.2321 64.8839 63.3849 66.1025 66.1332C67.1462 68.4869 68.5503 71.3015 67.0618 73.4117C66.3493 74.2788 65.3915 74.9192 64.3092 75.2524C61.5605 76.3016 58.6068 76.7298 55.6669 76.5054C59.7035 76.4628 63.2368 80.5354 67.15 79.5611C69.3691 79.0086 70.8469 76.9758 71.9105 74.984C72.6884 73.6464 73.2147 72.1819 73.464 70.6608C73.7226 68.5976 73.1634 66.4265 73.8693 64.4669C74.6041 62.4274 76.5573 61.0629 78.5289 60.0995C79.8379 59.46 81.2649 58.9258 82.7227 59.0342C86.855 59.3416 88.9952 64.3391 92.9163 65.6569" fill="#2F2E41"/>
<path d="M234.174 92.9279H151.987C151.415 92.9272 150.866 92.7034 150.461 92.3055C150.056 91.9075 149.828 91.368 149.827 90.8053V58.0387C149.828 57.476 150.056 56.9365 150.461 56.5386C150.866 56.1406 151.415 55.9168 151.987 55.9162H234.174C234.746 55.9168 235.295 56.1406 235.7 56.5386C236.105 56.9365 236.333 57.476 236.334 58.0387V90.8053C236.333 91.368 236.105 91.9075 235.7 92.3055C235.295 92.7034 234.746 92.9272 234.174 92.9279Z" fill="#1778F2"/>
<path d="M226.348 108.646H159.813C159.126 108.646 158.466 108.378 157.98 107.9C157.494 107.422 157.221 106.775 157.221 106.099C157.221 105.424 157.494 104.776 157.98 104.298C158.466 103.82 159.126 103.552 159.813 103.552H226.348C229.691 103.506 229.725 108.692 226.348 108.646Z" fill="#E4E4E4"/>
<path d="M226.348 120.32H159.813C159.472 120.321 159.135 120.255 158.82 120.128C158.505 120 158.219 119.812 157.978 119.576C157.737 119.339 157.545 119.058 157.415 118.749C157.284 118.44 157.217 118.108 157.217 117.773C157.217 117.438 157.284 117.107 157.415 116.798C157.545 116.488 157.737 116.207 157.978 115.971C158.219 115.734 158.505 115.547 158.82 115.419C159.135 115.291 159.472 115.226 159.813 115.226H226.348C229.691 115.18 229.725 120.367 226.348 120.32Z" fill="#E4E4E4"/>
<path d="M226.348 131.995H159.813C159.126 131.995 158.466 131.726 157.98 131.249C157.494 130.771 157.221 130.123 157.221 129.447C157.221 128.772 157.494 128.124 157.98 127.646C158.466 127.169 159.126 126.9 159.813 126.9H226.348C229.691 126.855 229.725 132.041 226.348 131.995Z" fill="#E4E4E4"/>
<path d="M53.9731 7.68822C55.1822 7.68822 56.1625 6.72507 56.1625 5.53697C56.1625 4.34888 55.1822 3.38573 53.9731 3.38573C52.7639 3.38573 51.7837 4.34888 51.7837 5.53697C51.7837 6.72507 52.7639 7.68822 53.9731 7.68822Z" fill="white"/>
<path d="M62.2834 7.68822C63.4926 7.68822 64.4728 6.72507 64.4728 5.53697C64.4728 4.34888 63.4926 3.38573 62.2834 3.38573C61.0742 3.38573 60.094 4.34888 60.094 5.53697C60.094 6.72507 61.0742 7.68822 62.2834 7.68822Z" fill="white"/>
<path d="M70.5939 7.68822C71.8031 7.68822 72.7833 6.72507 72.7833 5.53697C72.7833 4.34888 71.8031 3.38573 70.5939 3.38573C69.3848 3.38573 68.4045 4.34888 68.4045 5.53697C68.4045 6.72507 69.3848 7.68822 70.5939 7.68822Z" fill="white"/>
<path d="M313.733 4.05631H304.164C303.977 4.05481 303.798 3.98078 303.666 3.85032C303.534 3.71986 303.461 3.54355 303.461 3.3598C303.461 3.17605 303.534 2.99974 303.666 2.86929C303.798 2.73883 303.977 2.66479 304.164 2.6633H313.733C313.92 2.66479 314.099 2.73883 314.231 2.86929C314.362 2.99974 314.436 3.17605 314.436 3.3598C314.436 3.54355 314.362 3.71986 314.231 3.85032C314.099 3.98078 313.92 4.05481 313.733 4.05631Z" fill="white"/>
<path d="M313.733 6.66819H304.164C303.976 6.66819 303.795 6.59481 303.662 6.46419C303.53 6.33357 303.455 6.15641 303.455 5.97168C303.455 5.78696 303.53 5.60981 303.662 5.47919C303.795 5.34857 303.976 5.27519 304.164 5.27519H313.733C313.827 5.2744 313.92 5.29183 314.006 5.32648C314.093 5.36113 314.172 5.41231 314.238 5.47706C314.305 5.54182 314.358 5.61887 314.394 5.70376C314.43 5.78865 314.448 5.87971 314.448 5.97168C314.448 6.06366 314.43 6.15472 314.394 6.23962C314.358 6.32451 314.305 6.40156 314.238 6.46632C314.172 6.53107 314.093 6.58224 314.006 6.61689C313.92 6.65154 313.827 6.66898 313.733 6.66819Z" fill="white"/>
<path d="M313.733 9.28007H304.164C303.976 9.28007 303.795 9.20669 303.662 9.07607C303.53 8.94546 303.455 8.76829 303.455 8.58357C303.455 8.39885 303.53 8.2217 303.662 8.09108C303.795 7.96046 303.976 7.88707 304.164 7.88707H313.733C313.921 7.88707 314.102 7.96046 314.234 8.09108C314.367 8.2217 314.442 8.39885 314.442 8.58357C314.442 8.76829 314.367 8.94546 314.234 9.07607C314.102 9.20669 313.921 9.28007 313.733 9.28007Z" fill="white"/>
</g>
<defs>
<clipPath id="clip0_222_67">
<rect width="420" height="301" fill="white"/>
</clipPath>
</defs>
</svg>
